<svg width="15" height="15" viewBox="0 0 15 15" fill="none" xmlns="http://www.w3.org/2000/svg">
<path d="M14 7.5V9.5C14 9.63261 13.9473 9.75979 13.8536 9.85355C13.7598 9.94732 13.6326 10 13.5 10C13.3674 10 13.2402 9.94732 13.1464 9.85355C13.0527 9.75979 13 9.63261 13 9.5C13 9.5 13.06 9 12 9H11V11.5C11 11.6326 10.9473 11.7598 10.8536 11.8536C10.7598 11.9473 10.6326 12 10.5 12H2.5C2.36739 12 2.24021 11.9473 2.14645 11.8536C2.05268 11.7598 2 11.6326 2 11.5V7.5C2 7.36739 2.05268 7.24021 2.14645 7.14645C2.24021 7.05268 2.36739 7 2.5 7H10.5C10.6326 7 10.7598 7.05268 10.8536 7.14645C10.9473 7.24021 11 7.36739 11 7.5V8H12C13.06 8 13 7.5 13 7.5C13 7.36739 13.0527 7.24021 13.1464 7.14645C13.2402 7.05268 13.3674 7 13.5 7C13.6326 7 13.7598 7.05268 13.8536 7.14645C13.9473 7.24021 14 7.36739 14 7.5V7.5ZM4 3C3.46957 3 2.96086 3.21071 2.58579 3.58579C2.21071 3.96086 2 4.46957 2 5C2 5.53043 2.21071 6.03914 2.58579 6.41421C2.96086 6.78929 3.46957 7 4 7C4.53043 7 5.03914 6.78929 5.41421 6.41421C5.78929 6.03914 6 5.53043 6 5C6 4.46957 5.78929 3.96086 5.41421 3.58579C5.03914 3.21071 4.53043 3 4 3ZM4 6C3.73478 6 3.48043 5.89464 3.29289 5.70711C3.10536 5.51957 3 5.26522 3 5C3 4.73478 3.10536 4.48043 3.29289 4.29289C3.48043 4.10536 3.73478 4 4 4C4.26522 4 4.51957 4.10536 4.70711 4.29289C4.89464 4.48043 5 4.73478 5 5C5 5.26522 4.89464 5.51957 4.70711 5.70711C4.51957 5.89464 4.26522 6 4 6ZM8.5 2C7.83696 2 7.20107 2.26339 6.73223 2.73223C6.26339 3.20107 6 3.83696 6 4.5C6 5.16304 6.26339 5.79893 6.73223 6.26777C7.20107 6.73661 7.83696 7 8.5 7C9.16304 7 9.79893 6.73661 10.2678 6.26777C10.7366 5.79893 11 5.16304 11 4.5C11 3.83696 10.7366 3.20107 10.2678 2.73223C9.79893 2.26339 9.16304 2 8.5 2V2ZM8.5 6C8.10218 6 7.72064 5.84196 7.43934 5.56066C7.15804 5.27936 7 4.89782 7 4.5C7 4.10218 7.15804 3.72064 7.43934 3.43934C7.72064 3.15804 8.10218 3 8.5 3C8.89782 3 9.27936 3.15804 9.56066 3.43934C9.84196 3.72064 10 4.10218 10 4.5C10 4.89782 9.84196 5.27936 9.56066 5.56066C9.27936 5.84196 8.89782 6 8.5 6Z" fill="black"/>
</svg>
