<svg width="15" height="15" viewBox="0 0 15 15" fill="none" xmlns="http://www.w3.org/2000/svg">
<path d="M3.75 10.625H6.875V9.375H3.75V10.625ZM10 10.625H11.25V9.375H10V10.625ZM3.75 8.125H6.875V6.875H3.75V8.125ZM10 8.125H11.25V4.375H10V8.125ZM3.75 5.625H6.875V4.375H3.75V5.625ZM2.5 13.125C2.15625 13.125 1.86208 13.0027 1.6175 12.7581C1.3725 12.5131 1.25 12.2188 1.25 11.875V3.125C1.25 2.78125 1.3725 2.48687 1.6175 2.24187C1.86208 1.99729 2.15625 1.875 2.5 1.875H12.5C12.8437 1.875 13.1381 1.99729 13.3831 2.24187C13.6277 2.48687 13.75 2.78125 13.75 3.125V11.875C13.75 12.2188 13.6277 12.5131 13.3831 12.7581C13.1381 13.0027 12.8437 13.125 12.5 13.125H2.5ZM2.5 11.875H12.5V3.125H2.5V11.875ZM2.5 11.875V3.125V11.875Z" fill="black"/>
</svg>
