<svg width="15" height="15" viewBox="0 0 15 15" fill="none" xmlns="http://www.w3.org/2000/svg">
<path d="M12.3692 4.45625C12.3103 4.38176 12.2353 4.32166 12.1497 4.28051C12.0642 4.23936 11.9704 4.21824 11.8754 4.21875H5.00042V3.90625C5.0012 3.63418 5.09073 3.36978 5.25542 3.15321C5.4201 2.93664 5.65095 2.77971 5.91292 2.70625C6.08122 2.86864 6.30414 2.96227 6.53792 2.96875H7.16292C7.41156 2.96875 7.65002 2.86998 7.82584 2.69416C8.00165 2.51835 8.10042 2.27989 8.10042 2.03125C8.10042 1.78261 8.00165 1.54415 7.82584 1.36834C7.65002 1.19252 7.41156 1.09375 7.16292 1.09375H6.53792C6.39703 1.09394 6.25801 1.12611 6.13135 1.18781C6.00468 1.24952 5.89367 1.33917 5.80667 1.45C5.23059 1.5539 4.70923 1.85667 4.33347 2.30553C3.95771 2.75439 3.75137 3.32087 3.75042 3.90625V4.21875H3.12542C3.03049 4.21824 2.93669 4.23936 2.85114 4.28051C2.76559 4.32166 2.69053 4.38176 2.63167 4.45625C2.56906 4.53046 2.52461 4.61824 2.50182 4.71262C2.47904 4.80701 2.47856 4.9054 2.50042 5L2.88792 6.55625C2.98045 6.91471 3.17702 7.23776 3.45285 7.48468C3.72869 7.73159 4.07145 7.89133 4.43792 7.94375L4.92542 12.3188H4.37542C4.20966 12.3188 4.05069 12.3846 3.93348 12.5018C3.81627 12.619 3.75042 12.778 3.75042 12.9438C3.75042 13.1095 3.81627 13.2685 3.93348 13.3857C4.05069 13.5029 4.20966 13.5688 4.37542 13.5688H10.6254C10.7912 13.5688 10.9502 13.5029 11.0674 13.3857C11.1846 13.2685 11.2504 13.1095 11.2504 12.9438C11.2504 12.778 11.1846 12.619 11.0674 12.5018C10.9502 12.3846 10.7912 12.3188 10.6254 12.3188H10.0754L10.5629 7.94375C10.9268 7.88746 11.2661 7.72527 11.5384 7.47741C11.8107 7.22955 12.004 6.907 12.0942 6.55L12.5004 5C12.5223 4.9054 12.5218 4.80701 12.499 4.71262C12.4762 4.61824 12.4318 4.53046 12.3692 4.45625V4.45625ZM8.81292 12.3438H6.18792L5.70042 7.96875H9.30042L8.81292 12.3438ZM10.8817 6.25C10.8475 6.38867 10.7668 6.51144 10.6531 6.59787C10.5393 6.68429 10.3994 6.72916 10.2567 6.725H4.72542C4.58265 6.72916 4.44276 6.68429 4.32905 6.59787C4.21533 6.51144 4.13464 6.38867 4.10042 6.25L3.92542 5.46875H11.0754L10.8817 6.25Z" fill="black"/>
</svg>
