<svg width="15" height="15" viewBox="0 0 15 15" fill="none" xmlns="http://www.w3.org/2000/svg">
<path d="M8.72162 4.1717L8.95506 4.24107L10.6004 1.39342C10.8535 0.957479 11.416 0.807479 11.8519 1.0606C12.2879 1.31373 12.4379 1.87623 12.1847 2.31217L10.5399 5.15889L10.7176 5.3267L11.0335 6.48967C11.15 6.91987 11.0912 7.37871 10.8699 7.7656L7.32146 13.909C7.21263 14.0989 7.05565 14.2567 6.86635 14.3664C6.67706 14.4762 6.46216 14.5342 6.24334 14.5344H6.2424C6.02396 14.5344 5.80881 14.4758 5.62037 14.3651L3.4374 13.0995C3.29526 13.0182 3.17061 12.9096 3.07063 12.7798C2.97066 12.6501 2.89734 12.5019 2.85491 12.3438C2.81247 12.1856 2.80174 12.0206 2.82336 11.8583C2.84497 11.6959 2.89849 11.5395 2.98084 11.3979L6.52834 5.25404C6.63855 5.06203 6.786 4.89396 6.96205 4.75969C7.13809 4.62543 7.33917 4.52767 7.5535 4.47217L8.72162 4.1717V4.1717ZM8.70521 5.14248L7.78834 5.38107C7.69502 5.40518 7.60747 5.44771 7.53084 5.50615C7.4542 5.5646 7.39003 5.63777 7.34209 5.72139L3.79178 11.8695C3.77111 11.9043 3.75765 11.9429 3.75219 11.983C3.74674 12.0231 3.74941 12.0639 3.76003 12.1029C3.77066 12.142 3.78903 12.1785 3.81405 12.2103C3.83907 12.2421 3.87023 12.2686 3.90568 12.2881L6.09334 13.5561C6.12811 13.5761 6.16652 13.5891 6.20633 13.5941C6.24614 13.5992 6.28657 13.5963 6.32526 13.5857C6.36395 13.575 6.40013 13.5567 6.43169 13.5319C6.46326 13.5071 6.48957 13.4763 6.50912 13.4412L10.058 7.29451C10.1063 7.21002 10.1373 7.11684 10.1495 7.02032C10.1616 6.92379 10.1546 6.82582 10.1288 6.73201L9.88178 5.8231L9.36615 5.33795L8.70521 5.14248V5.14248ZM11.6902 11.7387C11.7444 11.4953 11.7196 11.2409 11.6192 11.0125C11.5189 10.7842 11.3483 10.5938 11.1323 10.4691C10.9163 10.3444 10.6661 10.2919 10.4182 10.3191C10.1703 10.3464 9.93753 10.4521 9.75381 10.6208L11.6907 11.7387H11.6902ZM10.5465 12.6561C10.8521 12.6561 11.1301 12.5389 11.3387 12.3476L9.40271 11.2297C9.3646 11.401 9.36544 11.5787 9.40519 11.7496C9.44493 11.9205 9.52257 12.0804 9.63235 12.2173C9.74214 12.3542 9.88128 12.4647 10.0395 12.5407C10.1977 12.6166 10.371 12.6561 10.5465 12.6561V12.6561Z" fill="black"/>
</svg>
