<svg width="28" height="28" viewBox="0 0 28 28" fill="none" xmlns="http://www.w3.org/2000/svg">
<mask id="path-1-outside-1_16_3234" maskUnits="userSpaceOnUse" x="2.23074" y="-0.125" width="23" height="28" fill="black">
<rect fill="white" x="2.23074" y="-0.125" width="23" height="28"/>
<path d="M18.2 18.2C20.3437 16.8 21.6125 14.3938 21.6125 11.8563C21.6125 9.75625 20.7812 7.7875 19.25 6.34375C17.7187 4.9 15.75 4.15625 13.6062 4.24375C9.66874 4.41875 6.38749 7.7875 6.34374 11.7687C6.29999 14.3062 7.52499 16.6688 9.62499 18.1125C10.4562 18.6813 11.025 19.6 11.1125 20.5188H10.15C9.88749 20.5188 9.71249 20.6938 9.71249 20.9563C9.71249 21.2188 9.88749 21.3938 10.15 21.3938H11.1562V22.4437H10.15C9.88749 22.4437 9.71249 22.6187 9.71249 22.8812C9.71249 23.1437 9.88749 23.3187 10.15 23.3187H11.1562V24.5C11.1562 25.9437 12.3375 27.125 13.7812 27.125H14.175C15.6187 27.125 16.8 25.9437 16.8 24.5V23.275H17.8062C18.0687 23.275 18.2437 23.1 18.2437 22.8375C18.2437 22.575 18.0687 22.4 17.8062 22.4H16.8V21.35H17.8062C18.0687 21.35 18.2437 21.175 18.2437 20.9125C18.2437 20.65 18.0687 20.475 17.8062 20.475H16.8437C16.9312 19.5562 17.4125 18.6812 18.2 18.2ZM15.925 24.5C15.925 25.4625 15.1375 26.25 14.175 26.25H13.7812C12.8187 26.25 12.0312 25.4625 12.0312 24.5V23.275H15.925V24.5ZM11.9875 22.4V21.35H15.8812V22.4H11.9875ZM12.5562 12.8625H11.55C11.1125 12.8625 10.8062 12.5125 10.8062 12.1188C10.8062 11.725 11.1562 11.375 11.55 11.375H11.8125C12.25 11.375 12.5562 11.725 12.5562 12.1188V12.8625ZM14.7437 20.5188H13.475V13.7375H14.7437V20.5188ZM15.925 20.5188H15.575V13.7375H16.3187C17.2375 13.7375 17.9375 12.9938 17.9375 12.1188C17.9375 11.2 17.1937 10.5 16.3187 10.5C15.4 10.5 14.7 11.2438 14.7 12.1188V12.8625H13.4312V12.1188C13.4312 11.2 12.6875 10.5 11.8125 10.5H11.5937C10.675 10.5 9.97499 11.2438 9.97499 12.1188C9.97499 13.0375 10.7187 13.7375 11.5937 13.7375H12.6V20.5188H12.0312C11.9 19.2938 11.2437 18.1563 10.15 17.3688C8.31249 16.1 7.21874 14 7.26249 11.7687C7.30624 8.26875 10.1937 5.25 13.6937 5.11875C15.575 5.03125 17.325 5.6875 18.6812 6.95625C20.0375 8.225 20.7812 9.975 20.7812 11.8563C20.7812 14.1313 19.6437 16.1875 17.7625 17.4563C16.6687 18.1125 16.0562 19.25 15.925 20.5188ZM15.6187 12.8625V12.1188C15.6187 11.6813 15.9687 11.375 16.3625 11.375C16.7562 11.375 17.1062 11.725 17.1062 12.1188C17.1062 12.5125 16.7562 12.8625 16.3625 12.8625H15.6187ZM13.9562 3.19375C14.2187 3.19375 14.3937 3.01875 14.3937 2.75625V1.3125C14.3937 1.05 14.2187 0.875 13.9562 0.875C13.6937 0.875 13.5187 1.05 13.5187 1.3125V2.75625C13.5187 2.975 13.7375 3.19375 13.9562 3.19375ZM17.85 4.1125C17.8937 4.15625 17.9812 4.15625 18.025 4.15625C18.2 4.15625 18.3312 4.06875 18.4187 3.89375L19.075 2.625C19.1625 2.40625 19.075 2.14375 18.9 2.05625C18.6812 1.96875 18.4187 2.05625 18.3312 2.23125L17.6312 3.5C17.5437 3.71875 17.6312 3.98125 17.85 4.1125ZM21.2625 6.825C21.35 6.825 21.4375 6.78125 21.525 6.7375L22.6625 5.8625C22.8375 5.73125 22.8812 5.425 22.75 5.25C22.6187 5.075 22.3125 5.03125 22.1375 5.1625L21 6.0375C20.825 6.16875 20.7812 6.475 20.9125 6.65C21 6.78125 21.1312 6.825 21.2625 6.825ZM24.2375 9.5375L22.8375 9.8C22.6187 9.84375 22.4437 10.0625 22.4875 10.325C22.5312 10.5438 22.7062 10.675 22.925 10.675C22.9687 10.675 22.9687 10.675 23.0125 10.675L24.4125 10.4125C24.6312 10.3687 24.8062 10.15 24.7625 9.8875C24.7187 9.66875 24.5 9.49375 24.2375 9.5375ZM24.1937 14.3938L22.8375 14C22.6187 13.9125 22.3562 14.0438 22.3125 14.3063C22.2687 14.5688 22.3562 14.7875 22.6187 14.8313L24.0187 15.225C24.0625 15.225 24.1062 15.225 24.15 15.225C24.325 15.225 24.5 15.0937 24.5875 14.9187C24.5437 14.7 24.4125 14.4375 24.1937 14.3938ZM20.9125 17.7188C20.7375 17.5437 20.475 17.5437 20.3 17.7625C20.125 17.9375 20.125 18.2 20.3437 18.375L21.3937 19.3375C21.4812 19.425 21.5687 19.4688 21.7 19.4688C21.8312 19.4688 21.9187 19.425 22.0062 19.3375C22.1812 19.1625 22.1812 18.9 21.9625 18.725L20.9125 17.7188ZM9.58124 3.89375C9.66874 4.06875 9.79999 4.15625 9.97499 4.15625C10.0625 4.15625 10.1062 4.15625 10.15 4.1125C10.3687 4.025 10.4562 3.7625 10.325 3.54375L9.66874 2.275C9.58124 2.05625 9.31874 1.96875 9.09999 2.1C8.88124 2.1875 8.79374 2.45 8.92499 2.66875L9.58124 3.89375ZM6.47499 6.7375C6.56249 6.78125 6.64999 6.825 6.73749 6.825C6.86874 6.825 6.99999 6.78125 7.08749 6.65C7.21874 6.475 7.17499 6.16875 6.99999 6.0375L5.86249 5.1625C5.68749 5.03125 5.38124 5.075 5.24999 5.25C5.11874 5.425 5.16249 5.73125 5.33749 5.8625L6.47499 6.7375ZM4.98749 10.675C5.03124 10.675 5.03124 10.675 5.07499 10.675C5.29374 10.675 5.46874 10.5438 5.51249 10.325C5.55624 10.1063 5.38124 9.84375 5.16249 9.8L3.76249 9.5375C3.54374 9.49375 3.28124 9.66875 3.23749 9.8875C3.19374 10.1063 3.36874 10.3687 3.58749 10.4125L4.98749 10.675ZM5.16249 14L3.76249 14.3938C3.58749 14.4375 3.45624 14.7 3.49999 14.9187C3.54374 15.0937 3.71874 15.225 3.93749 15.225C3.98124 15.225 4.02499 15.225 4.06874 15.225L5.46874 14.8313C5.68749 14.7438 5.81874 14.525 5.77499 14.3063C5.73124 14.0875 5.42499 13.9125 5.16249 14ZM7.08749 17.7188L6.03749 18.6813C5.86249 18.8563 5.86249 19.1187 5.99374 19.2937C6.08124 19.3812 6.21249 19.425 6.29999 19.425C6.38749 19.425 6.51874 19.3812 6.60624 19.2937L7.65624 18.3313C7.83124 18.1563 7.83124 17.8938 7.69999 17.7188C7.52499 17.5437 7.26249 17.5437 7.08749 17.7188Z"/>
</mask>
<path d="M18.2 18.2C20.3437 16.8 21.6125 14.3938 21.6125 11.8563C21.6125 9.75625 20.7812 7.7875 19.25 6.34375C17.7187 4.9 15.75 4.15625 13.6062 4.24375C9.66874 4.41875 6.38749 7.7875 6.34374 11.7687C6.29999 14.3062 7.52499 16.6688 9.62499 18.1125C10.4562 18.6813 11.025 19.6 11.1125 20.5188H10.15C9.88749 20.5188 9.71249 20.6938 9.71249 20.9563C9.71249 21.2188 9.88749 21.3938 10.15 21.3938H11.1562V22.4437H10.15C9.88749 22.4437 9.71249 22.6187 9.71249 22.8812C9.71249 23.1437 9.88749 23.3187 10.15 23.3187H11.1562V24.5C11.1562 25.9437 12.3375 27.125 13.7812 27.125H14.175C15.6187 27.125 16.8 25.9437 16.8 24.5V23.275H17.8062C18.0687 23.275 18.2437 23.1 18.2437 22.8375C18.2437 22.575 18.0687 22.4 17.8062 22.4H16.8V21.35H17.8062C18.0687 21.35 18.2437 21.175 18.2437 20.9125C18.2437 20.65 18.0687 20.475 17.8062 20.475H16.8437C16.9312 19.5562 17.4125 18.6812 18.2 18.2ZM15.925 24.5C15.925 25.4625 15.1375 26.25 14.175 26.25H13.7812C12.8187 26.25 12.0312 25.4625 12.0312 24.5V23.275H15.925V24.5ZM11.9875 22.4V21.35H15.8812V22.4H11.9875ZM12.5562 12.8625H11.55C11.1125 12.8625 10.8062 12.5125 10.8062 12.1188C10.8062 11.725 11.1562 11.375 11.55 11.375H11.8125C12.25 11.375 12.5562 11.725 12.5562 12.1188V12.8625ZM14.7437 20.5188H13.475V13.7375H14.7437V20.5188ZM15.925 20.5188H15.575V13.7375H16.3187C17.2375 13.7375 17.9375 12.9938 17.9375 12.1188C17.9375 11.2 17.1937 10.5 16.3187 10.5C15.4 10.5 14.7 11.2438 14.7 12.1188V12.8625H13.4312V12.1188C13.4312 11.2 12.6875 10.5 11.8125 10.5H11.5937C10.675 10.5 9.97499 11.2438 9.97499 12.1188C9.97499 13.0375 10.7187 13.7375 11.5937 13.7375H12.6V20.5188H12.0312C11.9 19.2938 11.2437 18.1563 10.15 17.3688C8.31249 16.1 7.21874 14 7.26249 11.7687C7.30624 8.26875 10.1937 5.25 13.6937 5.11875C15.575 5.03125 17.325 5.6875 18.6812 6.95625C20.0375 8.225 20.7812 9.975 20.7812 11.8563C20.7812 14.1313 19.6437 16.1875 17.7625 17.4563C16.6687 18.1125 16.0562 19.25 15.925 20.5188ZM15.6187 12.8625V12.1188C15.6187 11.6813 15.9687 11.375 16.3625 11.375C16.7562 11.375 17.1062 11.725 17.1062 12.1188C17.1062 12.5125 16.7562 12.8625 16.3625 12.8625H15.6187ZM13.9562 3.19375C14.2187 3.19375 14.3937 3.01875 14.3937 2.75625V1.3125C14.3937 1.05 14.2187 0.875 13.9562 0.875C13.6937 0.875 13.5187 1.05 13.5187 1.3125V2.75625C13.5187 2.975 13.7375 3.19375 13.9562 3.19375ZM17.85 4.1125C17.8937 4.15625 17.9812 4.15625 18.025 4.15625C18.2 4.15625 18.3312 4.06875 18.4187 3.89375L19.075 2.625C19.1625 2.40625 19.075 2.14375 18.9 2.05625C18.6812 1.96875 18.4187 2.05625 18.3312 2.23125L17.6312 3.5C17.5437 3.71875 17.6312 3.98125 17.85 4.1125ZM21.2625 6.825C21.35 6.825 21.4375 6.78125 21.525 6.7375L22.6625 5.8625C22.8375 5.73125 22.8812 5.425 22.75 5.25C22.6187 5.075 22.3125 5.03125 22.1375 5.1625L21 6.0375C20.825 6.16875 20.7812 6.475 20.9125 6.65C21 6.78125 21.1312 6.825 21.2625 6.825ZM24.2375 9.5375L22.8375 9.8C22.6187 9.84375 22.4437 10.0625 22.4875 10.325C22.5312 10.5438 22.7062 10.675 22.925 10.675C22.9687 10.675 22.9687 10.675 23.0125 10.675L24.4125 10.4125C24.6312 10.3687 24.8062 10.15 24.7625 9.8875C24.7187 9.66875 24.5 9.49375 24.2375 9.5375ZM24.1937 14.3938L22.8375 14C22.6187 13.9125 22.3562 14.0438 22.3125 14.3063C22.2687 14.5688 22.3562 14.7875 22.6187 14.8313L24.0187 15.225C24.0625 15.225 24.1062 15.225 24.15 15.225C24.325 15.225 24.5 15.0937 24.5875 14.9187C24.5437 14.7 24.4125 14.4375 24.1937 14.3938ZM20.9125 17.7188C20.7375 17.5437 20.475 17.5437 20.3 17.7625C20.125 17.9375 20.125 18.2 20.3437 18.375L21.3937 19.3375C21.4812 19.425 21.5687 19.4688 21.7 19.4688C21.8312 19.4688 21.9187 19.425 22.0062 19.3375C22.1812 19.1625 22.1812 18.9 21.9625 18.725L20.9125 17.7188ZM9.58124 3.89375C9.66874 4.06875 9.79999 4.15625 9.97499 4.15625C10.0625 4.15625 10.1062 4.15625 10.15 4.1125C10.3687 4.025 10.4562 3.7625 10.325 3.54375L9.66874 2.275C9.58124 2.05625 9.31874 1.96875 9.09999 2.1C8.88124 2.1875 8.79374 2.45 8.92499 2.66875L9.58124 3.89375ZM6.47499 6.7375C6.56249 6.78125 6.64999 6.825 6.73749 6.825C6.86874 6.825 6.99999 6.78125 7.08749 6.65C7.21874 6.475 7.17499 6.16875 6.99999 6.0375L5.86249 5.1625C5.68749 5.03125 5.38124 5.075 5.24999 5.25C5.11874 5.425 5.16249 5.73125 5.33749 5.8625L6.47499 6.7375ZM4.98749 10.675C5.03124 10.675 5.03124 10.675 5.07499 10.675C5.29374 10.675 5.46874 10.5438 5.51249 10.325C5.55624 10.1063 5.38124 9.84375 5.16249 9.8L3.76249 9.5375C3.54374 9.49375 3.28124 9.66875 3.23749 9.8875C3.19374 10.1063 3.36874 10.3687 3.58749 10.4125L4.98749 10.675ZM5.16249 14L3.76249 14.3938C3.58749 14.4375 3.45624 14.7 3.49999 14.9187C3.54374 15.0937 3.71874 15.225 3.93749 15.225C3.98124 15.225 4.02499 15.225 4.06874 15.225L5.46874 14.8313C5.68749 14.7438 5.81874 14.525 5.77499 14.3063C5.73124 14.0875 5.42499 13.9125 5.16249 14ZM7.08749 17.7188L6.03749 18.6813C5.86249 18.8563 5.86249 19.1187 5.99374 19.2937C6.08124 19.3812 6.21249 19.425 6.29999 19.425C6.38749 19.425 6.51874 19.3812 6.60624 19.2937L7.65624 18.3313C7.83124 18.1563 7.83124 17.8938 7.69999 17.7188C7.52499 17.5437 7.26249 17.5437 7.08749 17.7188Z" fill="black" fill-opacity="0.5"/>
<path d="M18.2 18.2C20.3437 16.8 21.6125 14.3938 21.6125 11.8563C21.6125 9.75625 20.7812 7.7875 19.25 6.34375C17.7187 4.9 15.75 4.15625 13.6062 4.24375C9.66874 4.41875 6.38749 7.7875 6.34374 11.7687C6.29999 14.3062 7.52499 16.6688 9.62499 18.1125C10.4562 18.6813 11.025 19.6 11.1125 20.5188H10.15C9.88749 20.5188 9.71249 20.6938 9.71249 20.9563C9.71249 21.2188 9.88749 21.3938 10.15 21.3938H11.1562V22.4437H10.15C9.88749 22.4437 9.71249 22.6187 9.71249 22.8812C9.71249 23.1437 9.88749 23.3187 10.15 23.3187H11.1562V24.5C11.1562 25.9437 12.3375 27.125 13.7812 27.125H14.175C15.6187 27.125 16.8 25.9437 16.8 24.5V23.275H17.8062C18.0687 23.275 18.2437 23.1 18.2437 22.8375C18.2437 22.575 18.0687 22.4 17.8062 22.4H16.8V21.35H17.8062C18.0687 21.35 18.2437 21.175 18.2437 20.9125C18.2437 20.65 18.0687 20.475 17.8062 20.475H16.8437C16.9312 19.5562 17.4125 18.6812 18.2 18.2ZM15.925 24.5C15.925 25.4625 15.1375 26.25 14.175 26.25H13.7812C12.8187 26.25 12.0312 25.4625 12.0312 24.5V23.275H15.925V24.5ZM11.9875 22.4V21.35H15.8812V22.4H11.9875ZM12.5562 12.8625H11.55C11.1125 12.8625 10.8062 12.5125 10.8062 12.1188C10.8062 11.725 11.1562 11.375 11.55 11.375H11.8125C12.25 11.375 12.5562 11.725 12.5562 12.1188V12.8625ZM14.7437 20.5188H13.475V13.7375H14.7437V20.5188ZM15.925 20.5188H15.575V13.7375H16.3187C17.2375 13.7375 17.9375 12.9938 17.9375 12.1188C17.9375 11.2 17.1937 10.5 16.3187 10.5C15.4 10.5 14.7 11.2438 14.7 12.1188V12.8625H13.4312V12.1188C13.4312 11.2 12.6875 10.5 11.8125 10.5H11.5937C10.675 10.5 9.97499 11.2438 9.97499 12.1188C9.97499 13.0375 10.7187 13.7375 11.5937 13.7375H12.6V20.5188H12.0312C11.9 19.2938 11.2437 18.1563 10.15 17.3688C8.31249 16.1 7.21874 14 7.26249 11.7687C7.30624 8.26875 10.1937 5.25 13.6937 5.11875C15.575 5.03125 17.325 5.6875 18.6812 6.95625C20.0375 8.225 20.7812 9.975 20.7812 11.8563C20.7812 14.1313 19.6437 16.1875 17.7625 17.4563C16.6687 18.1125 16.0562 19.25 15.925 20.5188ZM15.6187 12.8625V12.1188C15.6187 11.6813 15.9687 11.375 16.3625 11.375C16.7562 11.375 17.1062 11.725 17.1062 12.1188C17.1062 12.5125 16.7562 12.8625 16.3625 12.8625H15.6187ZM13.9562 3.19375C14.2187 3.19375 14.3937 3.01875 14.3937 2.75625V1.3125C14.3937 1.05 14.2187 0.875 13.9562 0.875C13.6937 0.875 13.5187 1.05 13.5187 1.3125V2.75625C13.5187 2.975 13.7375 3.19375 13.9562 3.19375ZM17.85 4.1125C17.8937 4.15625 17.9812 4.15625 18.025 4.15625C18.2 4.15625 18.3312 4.06875 18.4187 3.89375L19.075 2.625C19.1625 2.40625 19.075 2.14375 18.9 2.05625C18.6812 1.96875 18.4187 2.05625 18.3312 2.23125L17.6312 3.5C17.5437 3.71875 17.6312 3.98125 17.85 4.1125ZM21.2625 6.825C21.35 6.825 21.4375 6.78125 21.525 6.7375L22.6625 5.8625C22.8375 5.73125 22.8812 5.425 22.75 5.25C22.6187 5.075 22.3125 5.03125 22.1375 5.1625L21 6.0375C20.825 6.16875 20.7812 6.475 20.9125 6.65C21 6.78125 21.1312 6.825 21.2625 6.825ZM24.2375 9.5375L22.8375 9.8C22.6187 9.84375 22.4437 10.0625 22.4875 10.325C22.5312 10.5438 22.7062 10.675 22.925 10.675C22.9687 10.675 22.9687 10.675 23.0125 10.675L24.4125 10.4125C24.6312 10.3687 24.8062 10.15 24.7625 9.8875C24.7187 9.66875 24.5 9.49375 24.2375 9.5375ZM24.1937 14.3938L22.8375 14C22.6187 13.9125 22.3562 14.0438 22.3125 14.3063C22.2687 14.5688 22.3562 14.7875 22.6187 14.8313L24.0187 15.225C24.0625 15.225 24.1062 15.225 24.15 15.225C24.325 15.225 24.5 15.0937 24.5875 14.9187C24.5437 14.7 24.4125 14.4375 24.1937 14.3938ZM20.9125 17.7188C20.7375 17.5437 20.475 17.5437 20.3 17.7625C20.125 17.9375 20.125 18.2 20.3437 18.375L21.3937 19.3375C21.4812 19.425 21.5687 19.4688 21.7 19.4688C21.8312 19.4688 21.9187 19.425 22.0062 19.3375C22.1812 19.1625 22.1812 18.9 21.9625 18.725L20.9125 17.7188ZM9.58124 3.89375C9.66874 4.06875 9.79999 4.15625 9.97499 4.15625C10.0625 4.15625 10.1062 4.15625 10.15 4.1125C10.3687 4.025 10.4562 3.7625 10.325 3.54375L9.66874 2.275C9.58124 2.05625 9.31874 1.96875 9.09999 2.1C8.88124 2.1875 8.79374 2.45 8.92499 2.66875L9.58124 3.89375ZM6.47499 6.7375C6.56249 6.78125 6.64999 6.825 6.73749 6.825C6.86874 6.825 6.99999 6.78125 7.08749 6.65C7.21874 6.475 7.17499 6.16875 6.99999 6.0375L5.86249 5.1625C5.68749 5.03125 5.38124 5.075 5.24999 5.25C5.11874 5.425 5.16249 5.73125 5.33749 5.8625L6.47499 6.7375ZM4.98749 10.675C5.03124 10.675 5.03124 10.675 5.07499 10.675C5.29374 10.675 5.46874 10.5438 5.51249 10.325C5.55624 10.1063 5.38124 9.84375 5.16249 9.8L3.76249 9.5375C3.54374 9.49375 3.28124 9.66875 3.23749 9.8875C3.19374 10.1063 3.36874 10.3687 3.58749 10.4125L4.98749 10.675ZM5.16249 14L3.76249 14.3938C3.58749 14.4375 3.45624 14.7 3.49999 14.9187C3.54374 15.0937 3.71874 15.225 3.93749 15.225C3.98124 15.225 4.02499 15.225 4.06874 15.225L5.46874 14.8313C5.68749 14.7438 5.81874 14.525 5.77499 14.3063C5.73124 14.0875 5.42499 13.9125 5.16249 14ZM7.08749 17.7188L6.03749 18.6813C5.86249 18.8563 5.86249 19.1187 5.99374 19.2937C6.08124 19.3812 6.21249 19.425 6.29999 19.425C6.38749 19.425 6.51874 19.3812 6.60624 19.2937L7.65624 18.3313C7.83124 18.1563 7.83124 17.8938 7.69999 17.7188C7.52499 17.5437 7.26249 17.5437 7.08749 17.7188Z" stroke="black" stroke-opacity="0.5" stroke-width="0.5" mask="url(#path-1-outside-1_16_3234)"/>
</svg>
